<?xml version="1.0" encoding="UTF-8"?>
<svg id="Layer_1" xmlns="http://www.w3.org/2000/svg" version="1.1" viewBox="0 0 1200 800">
  <!-- Generator: Adobe Illustrator 29.1.0, SVG Export Plug-In . SVG Version: 2.1.0 Build 142)  -->
  <defs>
    <style>
      .st0 {
        fill: #fff;
      }
    </style>
  </defs>
  <path class="st0" d="M1030.8,752c8.2,0,14.8-6.5,14.9-14.6,0-.3,0-.7,0-1,0-11.1-6.7-16.4-20.4-16.4h-22.1v58h8.3v-25.3h10.2l.2.3,15.9,25h8.9l-17.1-25.8,1.1-.2ZM1021.2,746.2h-9.7v-19.6h12.2c6.3,0,13.5,1,13.5,9.3s-7.3,10.3-16.2,10.3M813.5,679.3h-118.1v-185c0-44.1-.8-100.9-61.4-100.9s-70.9,48.1-70.9,97.7v188.2h-118.1v-380.4h113.4v52h1.6c23.1-39.5,66.1-63.2,111.9-61.5,119.7,0,141.8,78.8,141.8,181.2v208.7ZM311.6,246.9c-37.9,0-68.6-30.7-68.6-68.5,0-37.9,30.7-68.6,68.5-68.6,37.9,0,68.6,30.7,68.6,68.5,0,37.9-30.7,68.6-68.5,68.6h0M370.7,679.3h-118.3v-380.4h118.3v380.4ZM872.4,0H193c-32.1-.4-58.4,25.4-58.8,57.5v682.2c.4,32.1,26.7,57.9,58.8,57.5h679.4c32.2.4,58.6-25.3,59.1-57.5V57.5C931,25.3,904.6-.4,872.4,0"/>
</svg>